<?xml version="1.0" encoding="utf-8"?>
<!-- Generator: Adobe Illustrator 25.4.1, SVG Export Plug-In . SVG Version: 6.00 Build 0)  -->
<svg version="1.1" id="Layer_1" xmlns="http://www.w3.org/2000/svg" xmlns:xlink="http://www.w3.org/1999/xlink" x="0px" y="0px"
	 viewBox="0 0 16 16" style="enable-background:new 0 0 16 16;" xml:space="preserve">
<style type="text/css">
	.st0{fill:#373654;}
</style>
<path class="st0" d="M14.7,15.2h-4V14h3.3c0.3,0,0.5-0.2,0.5-0.5v-1.9c0-0.3-0.1-0.5-0.3-0.7l-2.8-2.8v3.8c0,0.2-0.2,0.4-0.4,0.4
	c-0.2,0-0.4-0.2-0.4-0.4c0,0,0-6.5,0-6.8C10.7,1.8,8.5,0,8,0C7.5,0,5.3,1.8,5.3,5.1c0,0.3,0,6.8,0,6.8c0,0.2-0.2,0.4-0.4,0.4
	c-0.2,0-0.4-0.2-0.4-0.4V8.1l-2.8,2.8c-0.2,0.2-0.3,0.4-0.3,0.7v1.9c0,0.3,0.2,0.5,0.5,0.5h3.3v1.2h-4c-0.2,0-0.4,0.2-0.4,0.4
	S1.1,16,1.3,16h13.4c0.2,0,0.4-0.2,0.4-0.4S14.9,15.2,14.7,15.2z M8.4,15.2H7.6v-4.8c0-0.2,0.2-0.4,0.4-0.4c0.2,0,0.4,0.2,0.4,0.4
	V15.2z"/>
</svg>
